<svg width="7" height="12" viewBox="0 0 7 12" fill="none" xmlns="http://www.w3.org/2000/svg">
<path d="M1.37891 0.850167L6.26311 5.62765C6.43889 5.79715 6.52051 5.98549 6.52051 6.20522C6.52051 6.42494 6.43262 6.62584 6.26311 6.78906L1.37891 11.5603C1.23451 11.6984 1.06501 11.7737 0.85784 11.7737C0.437221 11.7737 0.11077 11.4473 0.11077 11.0329C0.11077 10.832 0.192382 10.6374 0.336774 10.493L4.73758 6.2115L0.336775 1.91741C0.192383 1.77302 0.110771 1.58468 0.110771 1.37751C0.110771 0.963169 0.437221 0.636718 0.857841 0.636719C1.05873 0.636719 1.23451 0.712053 1.37891 0.850167Z" fill="#C7C7CC"/>
</svg>
