<svg width="29" height="28" viewBox="0 0 29 28" fill="none" xmlns="http://www.w3.org/2000/svg">
<path d="M18.6774 4H9.53453C7.64181 4.00186 6.10805 5.36873 6.10596 7.05549V23.8607C6.1061 23.9494 6.13225 24.0366 6.18178 24.1136C6.33908 24.358 6.6889 24.4424 6.9631 24.3023L14.106 20.6361L21.2488 24.3023C21.3359 24.3464 21.4344 24.3697 21.5345 24.37C21.8499 24.3695 22.1054 24.1418 22.106 23.8607V7.05549C22.1039 5.36873 20.5701 4.00186 18.6774 4ZM20.9631 22.9795L14.3917 19.6067C14.3045 19.5626 14.2061 19.5393 14.106 19.5391C14.0058 19.5393 13.9074 19.5626 13.8202 19.6067L7.24881 22.9795V7.05549C7.25042 5.93107 8.27281 5.01993 9.53453 5.0185H18.6774C19.9391 5.01993 20.9615 5.93107 20.9631 7.05549V22.9795Z" fill="#8E8E93" stroke="#8E8E93"/>
</svg>
