<svg width="30" height="30" viewBox="0 0 30 30" fill="none" xmlns="http://www.w3.org/2000/svg">
<rect width="30" height="30" rx="7" fill="#AEAEB2"/>
<path d="M14.9927 22.4933C19.2642 22.4933 22.7899 18.9676 22.7899 14.7037C22.7899 10.4397 19.2567 6.91406 14.9852 6.91406C10.7213 6.91406 7.20312 10.4397 7.20312 14.7037C7.20312 18.9676 10.7288 22.4933 14.9927 22.4933ZM15.4297 18.267C14.9551 18.267 14.6688 17.9732 14.6688 17.4308V12.7148H14.6085L13.6744 13.3251C13.4785 13.4607 13.3881 13.4833 13.245 13.4833C12.9436 13.4833 12.7176 13.2271 12.7176 12.9333C12.7176 12.6847 12.8156 12.534 13.0265 12.3909L14.375 11.4794C14.7592 11.2232 15.0153 11.1328 15.3619 11.1328C15.8817 11.1328 16.2056 11.4492 16.2056 11.969V17.4308C16.2056 17.9732 15.9118 18.267 15.4297 18.267Z" fill="white"/>
</svg>
