<svg width="30" height="30" viewBox="0 0 30 30" fill="none" xmlns="http://www.w3.org/2000/svg">
<rect width="30" height="30" rx="7" fill="#AEAEB2"/>
<path d="M14.9927 22.4933C19.2642 22.4933 22.7899 18.9676 22.7899 14.7037C22.7899 10.4397 19.2567 6.91406 14.9852 6.91406C10.7213 6.91406 7.20312 10.4397 7.20312 14.7037C7.20312 18.9676 10.7288 22.4933 14.9927 22.4933ZM13.2148 18.2218C12.808 18.2218 12.5519 17.9807 12.5519 17.6116C12.5519 17.4082 12.6272 17.2199 12.8306 17.0165L15.2037 14.5756C15.6858 14.0935 16.1002 13.649 16.1002 13.1443C16.1002 12.5792 15.6708 12.2026 15.0229 12.2026C14.3599 12.2026 13.9983 12.6546 13.7949 13.0689C13.6518 13.3025 13.486 13.4908 13.1546 13.4908C12.7779 13.4908 12.5218 13.2648 12.5218 12.8956C12.5218 12.7826 12.5368 12.6696 12.5745 12.5491C12.8457 11.6602 13.8552 11.0047 15.0153 11.0047C16.5145 11.0047 17.5089 11.8108 17.5089 13.0162C17.5089 13.8599 17.0419 14.4777 16.2885 15.2235L14.6613 16.9336V16.9863H17.185C17.5767 16.9863 17.8404 17.2199 17.8404 17.6041C17.8404 17.9883 17.5767 18.2218 17.185 18.2218H13.2148Z" fill="white"/>
</svg>
