<svg width="30" height="30" viewBox="0 0 30 30" fill="none" xmlns="http://www.w3.org/2000/svg">
<rect width="30" height="30" rx="7" fill="#AEAEB2"/>
<path d="M14.9927 22.4933C19.2642 22.4933 22.7899 18.9676 22.7899 14.7037C22.7899 10.4397 19.2567 6.91406 14.9852 6.91406C10.7213 6.91406 7.20312 10.4397 7.20312 14.7037C7.20312 18.9676 10.7288 22.4933 14.9927 22.4933ZM14.9626 18.4026C13.6669 18.4026 12.6197 17.7999 12.3711 16.9185C12.341 16.798 12.3259 16.7151 12.3259 16.5871C12.3259 16.2179 12.5896 15.9693 12.9813 15.9693C13.2751 15.9693 13.471 16.0974 13.6066 16.3836C13.8025 16.8658 14.2319 17.2199 14.9927 17.2199C15.7838 17.2199 16.3186 16.8206 16.3186 16.2179C16.3186 15.6002 15.7913 15.1858 15.0003 15.1858H14.5633C14.2017 15.1858 13.9531 14.9448 13.9531 14.6133C13.9531 14.2592 14.2017 14.0332 14.5633 14.0332H14.9626C15.6331 14.0332 16.1077 13.6264 16.1077 13.0463C16.1077 12.5039 15.6858 12.1649 14.9927 12.1649C14.3524 12.1649 13.9079 12.4813 13.7271 13.0086C13.6066 13.2874 13.4107 13.423 13.1094 13.423C12.7176 13.423 12.454 13.1819 12.454 12.8128C12.454 12.6922 12.469 12.5943 12.4992 12.4738C12.7327 11.5698 13.7045 11.0047 15.0153 11.0047C16.4994 11.0047 17.5315 11.7732 17.5315 12.8881C17.5315 13.6791 16.9289 14.3873 16.1529 14.4927V14.5605C17.0795 14.6509 17.7651 15.3817 17.7651 16.2857C17.7651 17.5363 16.6953 18.4026 14.9626 18.4026Z" fill="white"/>
</svg>
