<svg width="30" height="30" viewBox="0 0 30 30" fill="none" xmlns="http://www.w3.org/2000/svg">
<rect width="30" height="30" rx="7" fill="#AEAEB2"/>
<path d="M14.9927 22.4933C19.2642 22.4933 22.7899 18.9676 22.7899 14.7037C22.7899 10.4397 19.2567 6.91406 14.9852 6.91406C10.7213 6.91406 7.20312 10.4397 7.20312 14.7037C7.20312 18.9676 10.7288 22.4933 14.9927 22.4933ZM16.0098 18.2746C15.5954 18.2746 15.3393 18.0033 15.3393 17.5287V16.8809H12.7101C12.13 16.8809 11.7609 16.5343 11.7609 15.9994C11.7609 15.7433 11.8211 15.5098 11.9869 15.2084C12.5594 14.2517 13.4182 12.9408 14.1565 11.8108C14.5257 11.2307 14.9174 11.0047 15.5728 11.0047C16.2282 11.0047 16.6878 11.4116 16.6878 11.9841V15.6755H17.185C17.5767 15.6755 17.8178 15.9166 17.8178 16.2782C17.8178 16.6398 17.5692 16.8809 17.185 16.8809H16.6878V17.5287C16.6878 18.0109 16.4392 18.2746 16.0098 18.2746ZM15.3393 15.6755V12.1574H15.2866C14.5483 13.3025 13.6593 14.6811 13.1244 15.6303V15.6755H15.3393Z" fill="white"/>
</svg>
