<svg width="30" height="30" viewBox="0 0 30 30" fill="none" xmlns="http://www.w3.org/2000/svg">
<rect width="30" height="30" rx="7" fill="#AEAEB2"/>
<path d="M14.9927 22.4933C19.2642 22.4933 22.7899 18.9676 22.7899 14.7037C22.7899 10.4397 19.2567 6.91406 14.9852 6.91406C10.7213 6.91406 7.20312 10.4397 7.20312 14.7037C7.20312 18.9676 10.7288 22.4933 14.9927 22.4933ZM14.94 18.4026C13.6443 18.4026 12.7176 17.9129 12.4163 17.137C12.356 17.0165 12.3259 16.8884 12.3259 16.7377C12.3259 16.3912 12.5745 16.1501 12.9662 16.1501C13.2525 16.1501 13.4484 16.2782 13.5915 16.4967C13.8477 16.9487 14.3223 17.2274 14.9174 17.2274C15.6783 17.2274 16.2584 16.6624 16.2584 15.909C16.2584 15.1406 15.7687 14.6359 15.0304 14.6359C14.6613 14.6359 14.3901 14.7489 14.0511 15.0201C13.7573 15.2235 13.5689 15.2988 13.245 15.2988C12.7176 15.2988 12.4163 14.9749 12.454 14.4475L12.6498 12.0067C12.68 11.5095 13.0416 11.178 13.5915 11.178H16.8384C17.1925 11.178 17.4185 11.404 17.4185 11.7506C17.4185 12.0896 17.185 12.3156 16.8384 12.3156H13.8401L13.6744 14.2215H13.7497C14.0134 13.8298 14.6613 13.5511 15.3167 13.5511C16.733 13.5511 17.7123 14.4927 17.7123 15.8714C17.7123 17.4082 16.5974 18.4026 14.94 18.4026Z" fill="white"/>
</svg>
