<svg width="30" height="30" viewBox="0 0 30 30" fill="none" xmlns="http://www.w3.org/2000/svg">
<rect width="30" height="30" rx="7" fill="#AEAEB2"/>
<path d="M14.9927 22.4933C19.2642 22.4933 22.7899 18.9676 22.7899 14.7037C22.7899 10.4397 19.2567 6.91406 14.9852 6.91406C10.7213 6.91406 7.20312 10.4397 7.20312 14.7037C7.20312 18.9676 10.7288 22.4933 14.9927 22.4933ZM15.053 18.4026C14.0661 18.4026 13.1922 18.0335 12.68 17.1973C12.341 16.6549 12.1451 15.8714 12.1451 14.8242C12.1451 12.293 13.3278 11.0047 15.2414 11.0047C16.2659 11.0047 17.1172 11.4794 17.3809 12.0444C17.4487 12.1724 17.4863 12.3005 17.4863 12.4436C17.4863 12.7676 17.2453 12.986 16.9213 12.986C16.62 12.986 16.4542 12.8429 16.2132 12.6244C15.9872 12.3758 15.7009 12.1649 15.2112 12.1649C14.2319 12.1649 13.5765 13.0915 13.5765 14.5078C13.5765 14.553 13.5765 14.5907 13.584 14.6434H13.6443C13.9079 14.0935 14.5257 13.6113 15.4975 13.6113C16.7405 13.6113 17.8103 14.44 17.8103 15.8789C17.8103 17.4685 16.6802 18.4026 15.053 18.4026ZM14.9852 17.2801C15.7988 17.2801 16.3262 16.7453 16.3262 15.9316C16.3262 15.1557 15.7762 14.6133 14.9927 14.6133C14.2093 14.6133 13.6518 15.1632 13.6518 15.9241C13.6518 16.7076 14.2093 17.2801 14.9852 17.2801Z" fill="white"/>
</svg>
