<svg width="30" height="30" viewBox="0 0 30 30" fill="none" xmlns="http://www.w3.org/2000/svg">
<rect width="30" height="30" rx="7" fill="#AEAEB2"/>
<path d="M14.9927 22.4933C19.2642 22.4933 22.7899 18.9676 22.7899 14.7037C22.7899 10.4397 19.2567 6.91406 14.9852 6.91406C10.7213 6.91406 7.20312 10.4397 7.20312 14.7037C7.20312 18.9676 10.7288 22.4933 14.9927 22.4933ZM14.0209 18.3951C13.5915 18.3951 13.2751 18.1239 13.2751 17.7246C13.2751 17.5438 13.3128 17.4082 13.4032 17.25L16.1152 12.4286V12.3683H13.0039C12.6423 12.3683 12.3937 12.1272 12.3937 11.7732C12.3937 11.4191 12.6348 11.178 13.0039 11.178H16.7706C17.3733 11.178 17.7575 11.5472 17.7575 12.0594C17.7575 12.2854 17.7048 12.4888 17.5315 12.8128L14.7592 17.8828C14.5483 18.2595 14.3449 18.3951 14.0209 18.3951Z" fill="white"/>
</svg>
