<svg width="30" height="30" viewBox="0 0 30 30" fill="none" xmlns="http://www.w3.org/2000/svg">
<rect width="30" height="30" rx="7" fill="#AEAEB2"/>
<path d="M14.9927 22.4933C19.2642 22.4933 22.7899 18.9676 22.7899 14.7037C22.7899 10.4397 19.2567 6.91406 14.9852 6.91406C10.7213 6.91406 7.20312 10.4397 7.20312 14.7037C7.20312 18.9676 10.7288 22.4933 14.9927 22.4933ZM14.9777 18.4026C13.2299 18.4026 12.0848 17.5664 12.0848 16.2932C12.0848 15.4118 12.7176 14.7037 13.6744 14.5304V14.4777C12.8532 14.2366 12.3937 13.6565 12.3937 12.9032C12.3937 11.7732 13.4408 11.0047 14.9852 11.0047C16.5296 11.0047 17.5843 11.7732 17.5843 12.9032C17.5843 13.6565 17.1097 14.2441 16.3036 14.4777V14.5304C17.2453 14.7037 17.8856 15.4043 17.8856 16.2857C17.8856 17.5589 16.7254 18.4026 14.9777 18.4026ZM14.9852 14.0633C15.6708 14.0633 16.1529 13.6339 16.1529 13.0388C16.1529 12.4587 15.6708 12.0368 14.9852 12.0368C14.3072 12.0368 13.8175 12.4587 13.8175 13.0388C13.8175 13.6339 14.3072 14.0633 14.9852 14.0633ZM14.9927 17.3781C15.7988 17.3781 16.394 16.8809 16.394 16.1953C16.394 15.5173 15.8139 15.0276 14.9927 15.0276C14.1867 15.0276 13.584 15.5248 13.584 16.1953C13.584 16.8809 14.1791 17.3781 14.9927 17.3781Z" fill="white"/>
</svg>
