<svg width="13" height="16" viewBox="0 0 13 16" fill="none" xmlns="http://www.w3.org/2000/svg">
<path d="M8.77534 2.52563C9.07465 2.18065 9.30287 1.77995 9.4469 1.34653C9.59092 0.913108 9.6479 0.455506 9.61458 0C8.69567 0.0741751 7.84268 0.506358 7.23938 1.20343C6.95047 1.53753 6.73154 1.92619 6.59555 2.34642C6.45955 2.76664 6.40926 3.20988 6.44765 3.64989C6.89588 3.65362 7.33897 3.55417 7.7426 3.35921C8.14624 3.16426 8.4996 2.87904 8.77534 2.52563V2.52563ZM10.7705 8.41612C10.7758 7.80945 10.9356 7.21413 11.2348 6.68635C11.5341 6.15857 11.9628 5.71573 12.4807 5.39962C12.1538 4.92873 11.7218 4.54046 11.2188 4.2656C10.7158 3.99074 10.1557 3.83686 9.58291 3.81615C8.34781 3.68948 7.20771 4.53663 6.55057 4.53663C5.89343 4.53663 4.9671 3.83199 3.93785 3.84782C3.26498 3.86999 2.60934 4.06617 2.03488 4.41723C1.46042 4.76829 0.986751 5.26224 0.660076 5.85091C-0.733374 8.27361 0.303796 11.876 1.69725 13.8316C2.33063 14.7896 3.12237 15.8743 4.16745 15.8347C5.21254 15.7951 5.55299 15.1854 6.76434 15.1854C7.97569 15.1854 8.34781 15.8347 9.37706 15.8109C10.4063 15.7872 11.1347 14.8292 11.7998 13.8712C12.2709 13.1757 12.6389 12.4156 12.8924 11.6147C12.2649 11.3471 11.7296 10.9016 11.3525 10.3332C10.9754 9.76471 10.7731 9.09826 10.7705 8.41612V8.41612Z" fill="white"/>
</svg>
