<svg width="30" height="30" viewBox="0 0 30 30" fill="none" xmlns="http://www.w3.org/2000/svg">
<rect width="30" height="30" rx="7" fill="black"/>
<path d="M12.3938 10.6355H17.72C18.6466 10.6355 19.0836 10.2061 19.0836 9.30964V7.1174C19.0836 6.21338 18.6466 5.7915 17.72 5.7915H12.3938C11.4747 5.7915 11.0303 6.21338 11.0303 7.1174V9.30964C11.0303 10.2061 11.4747 10.6355 12.3938 10.6355ZM10.3523 23.1863C10.7591 23.1863 10.9399 22.9754 11.0453 22.5912L11.6631 20.2483H18.3679L18.9856 22.5912C19.0911 22.9754 19.2945 23.1863 19.6787 23.1863C20.1232 23.1863 20.3718 22.9076 20.3718 22.5158C20.3718 22.433 20.3643 22.335 20.3341 22.2446L19.1514 17.7773H19.6335C20.1609 17.7773 20.5526 17.4157 20.5526 16.9411C20.5526 16.4363 20.191 16.0898 19.6636 16.0898H11.0303C10.3824 16.0898 10.0208 15.7583 10.0208 15.133V13.1818H11.0453V13.7243C11.0453 14.5981 11.4898 15.0276 12.3788 15.0276H17.7125C18.609 15.0276 19.0534 14.5981 19.0534 13.7243V13.1818H21.6826C22.1422 13.1818 22.4435 12.888 22.4435 12.4812C22.4435 12.0594 22.1497 11.7731 21.7128 11.7731H8.25795C7.83608 11.7731 7.5498 12.0669 7.5498 12.4812C7.5498 12.888 7.85114 13.1818 8.28809 13.1818H8.75516V16.1124C8.75516 17.1595 9.39551 17.7773 10.4427 17.7773H10.8796L9.69685 22.2446C9.68178 22.335 9.65918 22.4179 9.65918 22.5158C9.65918 22.8925 9.88518 23.1863 10.3523 23.1863ZM12.0247 18.9073L12.3185 17.7773H17.7125L18.0063 18.9073H12.0247Z" fill="white"/>
</svg>
