<svg width="16" height="16" viewBox="0 0 16 16" fill="none" xmlns="http://www.w3.org/2000/svg">
<path d="M15.3718 8.01744C15.3718 7.37261 15.3194 6.90205 15.2062 6.41406H7.84277V9.32454H12.1649C12.0778 10.0478 11.6073 11.1371 10.5616 11.869L10.5469 11.9665L12.8751 13.7701L13.0364 13.7862C14.5177 12.4181 15.3718 10.4051 15.3718 8.01744" fill="#4285F4"/>
<path d="M7.84307 15.6851C9.96056 15.6851 11.7382 14.988 13.0367 13.7855L10.5618 11.8683C9.89958 12.3302 9.01073 12.6526 7.84307 12.6526C5.76912 12.6526 4.00889 11.2845 3.38142 9.39355L3.28944 9.40136L0.868573 11.2749L0.836914 11.3629C2.12659 13.9248 4.77568 15.6851 7.84307 15.6851Z" fill="#34A853"/>
<path d="M3.38103 9.39397C3.21547 8.90599 3.11965 8.3831 3.11965 7.84285C3.11965 7.30255 3.21547 6.77972 3.37232 6.29174L3.36794 6.18781L0.916732 4.28418L0.836533 4.32233C0.304997 5.38546 0 6.57931 0 7.84285C0 9.10639 0.304997 10.3002 0.836533 11.3633L3.38103 9.39397" fill="#FBBC05"/>
<path d="M7.84306 3.03248C9.31572 3.03248 10.3091 3.66861 10.8755 4.20021L13.0889 2.0391C11.7296 0.775558 9.96056 0 7.84306 0C4.77568 0 2.12659 1.76023 0.836914 4.32216L3.37271 6.29157C4.00889 4.40061 5.76912 3.03248 7.84306 3.03248" fill="#EB4335"/>
</svg>
