<svg width="16" height="16" viewBox="0 0 16 16" fill="none" xmlns="http://www.w3.org/2000/svg">
<path d="M14.6875 7.02115H8.8125V1.14616C8.8125 0.558658 8.42083 0.166992 7.83333 0.166992C7.24583 0.166992 6.85416 0.558658 6.85416 1.14616V7.02115H0.979165C0.391665 7.02115 0 7.41282 0 8.00032C0 8.58782 0.391665 8.97949 0.979165 8.97949H6.85416V14.8545C6.85416 15.442 7.24583 15.8336 7.83333 15.8336C8.42083 15.8336 8.8125 15.442 8.8125 14.8545V8.97949H14.6875C15.275 8.97949 15.6667 8.58782 15.6667 8.00032C15.6667 7.41282 15.275 7.02115 14.6875 7.02115Z" fill="#8E8E93"/>
</svg>
