<svg width="30" height="30" viewBox="0 0 30 30" fill="none" xmlns="http://www.w3.org/2000/svg">
<rect width="30" height="30" rx="7" fill="#007AFF"/>
<path d="M7.04004 15.7997H11.4216C11.5585 18.3332 12.3661 20.7848 13.7616 22.9037C12.0136 22.6291 10.4058 21.783 9.18965 20.4977C7.97351 19.2124 7.21757 17.5603 7.04004 15.7997ZM7.04004 14.1997C7.21757 12.4391 7.97351 10.787 9.18965 9.50171C10.4058 8.21638 12.0136 7.37028 13.7616 7.0957C12.3661 9.21459 11.5585 11.6662 11.4216 14.1997H7.04004ZM22.96 14.1997H18.5784C18.4415 11.6662 17.634 9.21459 16.2384 7.0957C17.9865 7.37028 19.5943 8.21638 20.8104 9.50171C22.0266 10.787 22.7825 12.4391 22.96 14.1997ZM22.96 15.7997C22.7825 17.5603 22.0266 19.2124 20.8104 20.4977C19.5943 21.783 17.9865 22.6291 16.2384 22.9037C17.634 20.7848 18.4415 18.3332 18.5784 15.7997H22.9608H22.96ZM13.024 15.7997H16.976C16.8444 17.9593 16.1643 20.0497 15 21.8733C13.8358 20.0497 13.1557 17.9593 13.024 15.7997ZM13.024 14.1997C13.1557 12.0401 13.8358 9.94975 15 8.1261C16.1643 9.94975 16.8444 12.0401 16.976 14.1997H13.024Z" fill="white"/>
</svg>
