<svg width="65" height="66" viewBox="0 0 65 66" fill="none" xmlns="http://www.w3.org/2000/svg">
<g filter="url(#filter0_d_184_9061)">
<rect x="5" y="5.5" width="55" height="55" rx="27.5" fill="#F2F2F7"/>
<path d="M28.8604 33.0422C28.3717 32.6192 27.9797 32.096 27.7111 31.5081C27.4424 30.9203 27.3034 30.2815 27.3034 29.6351C27.3034 28.4206 27.7859 27.2558 28.6447 26.397C29.5035 25.5381 30.6683 25.0557 31.8828 25.0557C33.0974 25.0557 34.2622 25.5381 35.121 26.397C35.9798 27.2558 36.4623 28.4206 36.4623 29.6351C36.4623 30.2815 36.3233 30.9203 36.0546 31.5081C35.786 32.096 35.394 32.6192 34.9053 33.0422C36.1874 33.6228 37.2752 34.5603 38.0386 35.7428C38.8019 36.9252 39.2086 38.3025 39.21 39.7099C39.21 39.9528 39.1135 40.1858 38.9417 40.3575C38.7699 40.5293 38.537 40.6258 38.2941 40.6258C38.0512 40.6258 37.8182 40.5293 37.6464 40.3575C37.4747 40.1858 37.3782 39.9528 37.3782 39.7099C37.3782 38.2524 36.7992 36.8547 35.7686 35.8241C34.7381 34.7935 33.3403 34.2146 31.8828 34.2146C30.4254 34.2146 29.0276 34.7935 27.9971 35.8241C26.9665 36.8547 26.3875 38.2524 26.3875 39.7099C26.3875 39.9528 26.291 40.1858 26.1192 40.3575C25.9475 40.5293 25.7145 40.6258 25.4716 40.6258C25.2287 40.6258 24.9957 40.5293 24.824 40.3575C24.6522 40.1858 24.5557 39.9528 24.5557 39.7099C24.5571 38.3025 24.9638 36.9252 25.7271 35.7428C26.4905 34.5603 27.5783 33.6228 28.8604 33.0422ZM31.8828 32.3828C32.4263 32.3828 32.9575 32.2216 33.4094 31.9197C33.8612 31.6178 34.2134 31.1887 34.4214 30.6866C34.6293 30.1845 34.6837 29.6321 34.5777 29.0991C34.4717 28.5661 34.21 28.0765 33.8257 27.6922C33.4415 27.3079 32.9519 27.0463 32.4189 26.9402C31.8859 26.8342 31.3334 26.8886 30.8314 27.0966C30.3293 27.3046 29.9002 27.6567 29.5982 28.1086C29.2963 28.5604 29.1352 29.0917 29.1352 29.6351C29.1352 30.3638 29.4247 31.0627 29.9399 31.578C30.4552 32.0933 31.1541 32.3828 31.8828 32.3828Z" fill="#81F2DE"/>
</g>
<defs>
<filter id="filter0_d_184_9061" x="0.302083" y="0.802083" width="64.3958" height="64.3958" filterUnits="userSpaceOnUse" color-interpolation-filters="sRGB">
<feFlood flood-opacity="0" result="BackgroundImageFix"/>
<feColorMatrix in="SourceAlpha" type="matrix" values="0 0 0 0 0 0 0 0 0 0 0 0 0 0 0 0 0 0 127 0" result="hardAlpha"/>
<feOffset/>
<feGaussianBlur stdDeviation="2.34896"/>
<feColorMatrix type="matrix" values="0 0 0 0 0 0 0 0 0 0 0 0 0 0 0 0 0 0 0.05 0"/>
<feBlend mode="normal" in2="BackgroundImageFix" result="effect1_dropShadow_184_9061"/>
<feBlend mode="normal" in="SourceGraphic" in2="effect1_dropShadow_184_9061" result="shape"/>
</filter>
</defs>
</svg>
