<svg width="30" height="30" viewBox="0 0 30 30" fill="none" xmlns="http://www.w3.org/2000/svg">
<rect width="30" height="30" rx="7" fill="#0096D6"/>
<path d="M12.4055 21.4074C11.8884 21.4074 11.9354 21.2194 11.7943 20.7493L10.29 15.8133L21.8073 9.04395" fill="#C8DAEA"/>
<path d="M12.4062 21.4074C12.7353 21.4074 12.9234 21.2194 13.1584 21.0313L15.2738 19.0099L12.6413 17.4116" fill="#A9C9DD"/>
<path d="M12.6419 17.4116L18.9882 22.0656C19.6463 22.4886 20.2105 22.2536 20.3985 21.4074L22.984 9.27901C23.2191 8.2448 22.5609 7.77471 21.8558 8.10377L6.76576 13.9329C5.77856 14.309 5.77856 14.9201 6.57772 15.1552L10.4795 16.3774L19.4113 10.6893C19.8344 10.4542 20.2105 10.5483 19.9284 10.8773" fill="#F6FBFE"/>
</svg>
