<svg width="30" height="30" viewBox="0 0 30 30" fill="none" xmlns="http://www.w3.org/2000/svg">
<rect width="30" height="30" rx="7" fill="#467FC2"/>
<path d="M24.3284 19.1463C24.3056 19.0993 24.2843 19.0602 24.2645 19.029C23.9374 18.4656 23.3121 17.7742 22.3893 16.9544L22.3698 16.9357L22.36 16.9264L22.3501 16.917H22.3402C21.9214 16.5353 21.6561 16.2786 21.5451 16.1472C21.3418 15.8969 21.2963 15.6435 21.4074 15.3868C21.4859 15.1928 21.7806 14.7832 22.291 14.1573C22.5595 13.8256 22.7721 13.5598 22.9291 13.3595C24.0616 11.9202 24.5525 11.0005 24.4019 10.5999L24.3434 10.5063C24.3041 10.45 24.2027 10.3984 24.0392 10.3514C23.8754 10.3045 23.666 10.2968 23.4107 10.328L20.5831 10.3467C20.5373 10.3312 20.4719 10.3326 20.3867 10.3514C20.3016 10.3702 20.259 10.3797 20.259 10.3797L20.2098 10.4032L20.1707 10.4314C20.138 10.4501 20.102 10.4829 20.0627 10.5299C20.0236 10.5767 19.9909 10.6316 19.9648 10.6941C19.6569 11.4513 19.3069 12.1553 18.9141 12.806C18.6719 13.1941 18.4495 13.5303 18.2463 13.8151C18.0435 14.0997 17.8733 14.3094 17.7359 14.4439C17.5984 14.5784 17.4742 14.6862 17.3628 14.7677C17.2514 14.8491 17.1665 14.8836 17.1076 14.871C17.0487 14.8584 16.9931 14.8459 16.9405 14.8334C16.849 14.777 16.7753 14.7004 16.7198 14.6034C16.664 14.5064 16.6264 14.3844 16.6068 14.2373C16.5873 14.0902 16.5757 13.9636 16.5724 13.8572C16.5694 13.7509 16.5708 13.6005 16.5774 13.4066C16.5842 13.2125 16.5873 13.0812 16.5873 13.0124C16.5873 12.7745 16.5921 12.5164 16.6019 12.238C16.6118 11.9595 16.6198 11.7389 16.6265 11.5763C16.6331 11.4136 16.6362 11.2415 16.6362 11.06C16.6362 10.8785 16.6247 10.7362 16.6019 10.6329C16.5793 10.5297 16.5447 10.4296 16.499 10.3325C16.4531 10.2355 16.3859 10.1605 16.2978 10.1073C16.2094 10.0541 16.0996 10.0118 15.9689 9.98048C15.6219 9.90543 15.1801 9.86483 14.6433 9.85851C13.4259 9.84602 12.6437 9.92117 12.2968 10.0839C12.1593 10.1526 12.0349 10.2465 11.9237 10.3654C11.8059 10.5031 11.7895 10.5782 11.8745 10.5906C12.2673 10.6468 12.5454 10.7814 12.709 10.9942L12.768 11.1069C12.8139 11.1882 12.8597 11.3322 12.9055 11.5387C12.9513 11.7451 12.9808 11.9735 12.9938 12.2237C13.0265 12.6806 13.0265 13.0717 12.9938 13.397C12.9611 13.7225 12.9301 13.9759 12.9006 14.1574C12.871 14.3388 12.8269 14.4859 12.768 14.5985C12.709 14.7111 12.6698 14.78 12.6501 14.805C12.6305 14.8299 12.6141 14.8457 12.6011 14.8519C12.516 14.883 12.4276 14.8989 12.336 14.8989C12.2443 14.8989 12.1331 14.8551 12.0022 14.7674C11.8713 14.6798 11.7355 14.5594 11.5948 14.406C11.454 14.2527 11.2953 14.0383 11.1185 13.763C10.9418 13.4877 10.7586 13.1624 10.5687 12.7869L10.4117 12.5146C10.3135 12.3395 10.1794 12.0844 10.0092 11.7497C9.83891 11.4149 9.68839 11.091 9.55755 10.7781C9.50524 10.6467 9.42666 10.5466 9.32195 10.4778L9.27281 10.4496C9.24014 10.4246 9.1877 10.398 9.11576 10.3698C9.04372 10.3415 8.96854 10.3213 8.88993 10.3088L6.19977 10.3275C5.92487 10.3275 5.73835 10.387 5.64013 10.5059L5.60083 10.5622C5.58119 10.5935 5.57129 10.6436 5.57129 10.7124C5.57129 10.7813 5.59092 10.8658 5.63023 10.9658C6.02295 11.8482 6.45001 12.6992 6.91144 13.5189C7.37286 14.3387 7.77383 14.999 8.1141 15.4993C8.45444 16 8.80135 16.4725 9.15483 16.9166C9.5083 17.361 9.74228 17.6457 9.85676 17.7708C9.97138 17.8961 10.0614 17.9898 10.1268 18.0524L10.3723 18.2776C10.5294 18.4278 10.7601 18.6077 11.0645 18.8173C11.3689 19.027 11.706 19.2335 12.0758 19.437C12.4456 19.6402 12.8759 19.8061 13.3669 19.9343C13.8578 20.0627 14.3356 20.1142 14.8004 20.0894H15.9295C16.1585 20.0705 16.3319 20.0016 16.4499 19.8828L16.4889 19.8358C16.5152 19.7984 16.5398 19.7404 16.5625 19.6623C16.5854 19.5841 16.5969 19.4979 16.5969 19.4042C16.5902 19.1352 16.6116 18.8927 16.6606 18.6768C16.7095 18.461 16.7653 18.2983 16.8276 18.1888C16.89 18.0793 16.9604 17.9869 17.0387 17.912C17.1171 17.8369 17.173 17.7915 17.2058 17.7758C17.2385 17.7601 17.2645 17.7494 17.2841 17.743C17.4412 17.693 17.6261 17.7414 17.839 17.8886C18.0518 18.0357 18.2513 18.2172 18.438 18.433C18.6245 18.649 18.8487 18.8914 19.1104 19.1604C19.3724 19.4295 19.6014 19.6296 19.7977 19.7612L19.994 19.8738C20.1251 19.9489 20.2953 20.0178 20.5048 20.0803C20.7139 20.1429 20.8971 20.1585 21.0544 20.1273L23.5678 20.0898C23.8163 20.0898 24.0098 20.0504 24.147 19.9724C24.2845 19.8941 24.3661 19.808 24.3925 19.7142C24.4188 19.6204 24.4202 19.514 24.3975 19.3949C24.3742 19.2762 24.3513 19.1932 24.3284 19.1463Z" fill="white"/>
</svg>
