<svg width="53" height="54" viewBox="0 0 53 54" fill="none" xmlns="http://www.w3.org/2000/svg">
<g filter="url(#filter0_d_367_6921)">
<rect x="4" y="4.5" width="45" height="45" rx="22.5" fill="#F2F2F7"/>
<path d="M25.9961 27.5345C25.5962 27.1884 25.2755 26.7603 25.0557 26.2793C24.8359 25.7983 24.7221 25.2757 24.7221 24.7468C24.7221 23.7531 25.1169 22.8001 25.8196 22.0974C26.5222 21.3948 27.4752 21 28.469 21C29.4627 21 30.4157 21.3948 31.1184 22.0974C31.821 22.8001 32.2158 23.7531 32.2158 24.7468C32.2158 25.2757 32.102 25.7983 31.8822 26.2793C31.6624 26.7603 31.3417 27.1884 30.9419 27.5345C31.9909 28.0095 32.8809 28.7765 33.5054 29.744C34.13 30.7114 34.4628 31.8383 34.4639 32.9898C34.4639 33.1886 34.3849 33.3792 34.2444 33.5197C34.1039 33.6602 33.9132 33.7392 33.7145 33.7392C33.5158 33.7392 33.3252 33.6602 33.1846 33.5197C33.0441 33.3792 32.9651 33.1886 32.9651 32.9898C32.9651 31.7974 32.4914 30.6537 31.6482 29.8105C30.805 28.9673 29.6614 28.4936 28.469 28.4936C27.2765 28.4936 26.1329 28.9673 25.2897 29.8105C24.4465 30.6537 23.9728 31.7974 23.9728 32.9898C23.9728 33.1886 23.8938 33.3792 23.7533 33.5197C23.6128 33.6602 23.4221 33.7392 23.2234 33.7392C23.0247 33.7392 22.8341 33.6602 22.6935 33.5197C22.553 33.3792 22.474 33.1886 22.474 32.9898C22.4751 31.8383 22.8079 30.7114 23.4325 29.744C24.057 28.7765 24.947 28.0095 25.9961 27.5345ZM28.469 26.9949C28.9136 26.9949 29.3482 26.8631 29.7179 26.616C30.0876 26.369 30.3758 26.0179 30.5459 25.6071C30.7161 25.1963 30.7606 24.7443 30.6738 24.3082C30.5871 23.8722 30.373 23.4716 30.0586 23.1572C29.7442 22.8428 29.3436 22.6287 28.9075 22.5419C28.4714 22.4552 28.0194 22.4997 27.6086 22.6699C27.1979 22.84 26.8468 23.1282 26.5997 23.4978C26.3527 23.8675 26.2209 24.3022 26.2209 24.7468C26.2209 25.3431 26.4577 25.9149 26.8793 26.3365C27.3009 26.7581 27.8727 26.9949 28.469 26.9949ZM21.1701 27.2347C20.6906 26.6947 20.3773 26.0275 20.2681 25.3136C20.1588 24.5997 20.2582 23.8694 20.5543 23.2106C20.8505 22.5519 21.3307 21.9928 21.9371 21.6006C22.5436 21.2084 23.2505 20.9998 23.9728 21C24.1715 21 24.3621 21.079 24.5026 21.2195C24.6432 21.36 24.7221 21.5506 24.7221 21.7494C24.7221 21.9481 24.6432 22.1387 24.5026 22.2792C24.3621 22.4198 24.1715 22.4987 23.9728 22.4987C23.3765 22.4987 22.8047 22.7356 22.3831 23.1572C21.9615 23.5788 21.7247 24.1506 21.7247 24.7468C21.7257 25.1404 21.8301 25.5268 22.0274 25.8674C22.2246 26.208 22.5079 26.4909 22.8487 26.6877C22.9598 26.7518 23.0526 26.8433 23.1182 26.9535C23.1838 27.0637 23.22 27.1889 23.2234 27.3171C23.2265 27.4444 23.1972 27.5703 23.1382 27.683C23.0792 27.7958 22.9925 27.8916 22.8862 27.9616L22.5939 28.1564L22.4965 28.2089C21.5932 28.6373 20.8312 29.3149 20.3002 30.162C19.7691 31.009 19.4912 31.9901 19.4991 32.9898C19.4991 33.1886 19.4201 33.3792 19.2796 33.5197C19.139 33.6602 18.9484 33.7392 18.7497 33.7392C18.551 33.7392 18.3604 33.6602 18.2198 33.5197C18.0793 33.3792 18.0003 33.1886 18.0003 32.9898C17.9942 31.8399 18.2822 30.7075 18.837 29.7002C19.3918 28.6929 20.195 27.8442 21.1701 27.2347Z" fill="#81F2DE"/>
</g>
<defs>
<filter id="filter0_d_367_6921" x="0.15625" y="0.65625" width="52.6875" height="52.6875" filterUnits="userSpaceOnUse" color-interpolation-filters="sRGB">
<feFlood flood-opacity="0" result="BackgroundImageFix"/>
<feColorMatrix in="SourceAlpha" type="matrix" values="0 0 0 0 0 0 0 0 0 0 0 0 0 0 0 0 0 0 127 0" result="hardAlpha"/>
<feOffset/>
<feGaussianBlur stdDeviation="1.92187"/>
<feColorMatrix type="matrix" values="0 0 0 0 0 0 0 0 0 0 0 0 0 0 0 0 0 0 0.05 0"/>
<feBlend mode="normal" in2="BackgroundImageFix" result="effect1_dropShadow_367_6921"/>
<feBlend mode="normal" in="SourceGraphic" in2="effect1_dropShadow_367_6921" result="shape"/>
</filter>
</defs>
</svg>
