<svg width="21" height="21" viewBox="0 0 21 21" fill="none" xmlns="http://www.w3.org/2000/svg">
<path d="M10.5002 12.9736C10.1406 12.9736 9.84912 13.2651 9.84912 13.6247C9.84912 13.9842 10.1406 14.2757 10.5002 14.2757C10.8597 14.2757 11.1512 13.9842 11.1512 13.6247C11.1512 13.2651 10.8597 12.9736 10.5002 12.9736ZM10.5002 11.5413H10.5008C10.7882 11.5412 11.0212 11.308 11.021 11.0205V6.85384C11.021 6.56621 10.7878 6.33301 10.5002 6.33301C10.2125 6.33301 9.97933 6.56621 9.97933 6.85384V11.0211C9.97952 11.3086 10.2127 11.5415 10.5002 11.5413ZM10.5002 0.0830078C4.74722 0.0830078 0.0834961 4.74673 0.0834961 10.4997C0.0834961 16.2526 4.74722 20.9163 10.5002 20.9163C16.2503 20.9096 20.9101 16.2498 20.9168 10.4997C20.9168 4.74673 16.2531 0.0830078 10.5002 0.0830078ZM10.5002 19.8747C5.32247 19.8747 1.12516 15.6774 1.12516 10.4997C1.12516 5.32199 5.32247 1.12467 10.5002 1.12467C15.6755 1.13033 19.8695 5.32434 19.8752 10.4997C19.8752 15.6774 15.6779 19.8747 10.5002 19.8747Z" fill="url(#paint0_linear_102_47)"/>
<defs>
<linearGradient id="paint0_linear_102_47" x1="20.9168" y1="0.0830078" x2="0.0834961" y2="20.9163" gradientUnits="userSpaceOnUse">
<stop stop-color="#00FCCF"/>
<stop offset="1" stop-color="#BD01FF"/>
</linearGradient>
</defs>
</svg>
