<svg width="13" height="13" viewBox="0 0 13 13" fill="none" xmlns="http://www.w3.org/2000/svg">
<path d="M6.2513 1.13766e-06C2.80087 -0.00205874 0.00206108 2.79339 1.13773e-06 6.24382C-0.0020588 9.69425 2.79339 12.4931 6.24382 12.4951C7.9015 12.4978 9.49196 11.84 10.6634 10.6671C11.8353 9.49623 12.4941 7.90787 12.4951 6.2513C12.4972 2.80087 9.70173 0.00206108 6.2513 1.13766e-06ZM6.25149 11.8701C3.14621 11.8722 0.627214 9.35665 0.625077 6.25138C0.622979 3.14613 3.13858 0.627099 6.24382 0.625001C7.73575 0.622331 9.16721 1.2143 10.2215 2.2699C11.2761 3.32356 11.8692 4.75292 11.8702 6.24375C11.8723 9.34899 9.35673 11.868 6.25149 11.8701ZM6.68568 6.24756L8.6742 4.25903C8.7933 4.13754 8.7933 3.9431 8.6742 3.8216C8.55343 3.69835 8.3556 3.69637 8.23235 3.81714L6.24382 5.80567L4.2553 3.81718C4.1338 3.69812 3.93936 3.69812 3.81786 3.81718C3.69461 3.93795 3.69263 4.13578 3.8134 4.25903L5.80193 6.24756L3.8134 8.23609C3.75481 8.29468 3.72193 8.37414 3.72189 8.457C3.72189 8.62957 3.86177 8.7695 4.03435 8.76953C4.11724 8.76965 4.19678 8.73669 4.2553 8.67798L6.24382 6.68946L8.23235 8.67798C8.29086 8.73669 8.3704 8.76965 8.45329 8.76953V8.76957C8.53615 8.76953 8.61557 8.73661 8.67416 8.67806C8.79624 8.55602 8.79624 8.35816 8.6742 8.23609L6.68568 6.24756Z" fill="#1E1E1E"/>
</svg>
