<svg width="230" height="230" viewBox="0 0 230 230" fill="none" xmlns="http://www.w3.org/2000/svg">
<g filter="url(#filter0_dd_112_5843)">
<rect x="44" y="34" width="142" height="142" rx="32" fill="white"/>
</g>
<path d="M86.892 142.078L86.8631 121.36L121.525 121.312C121.943 121.316 122.358 121.237 122.746 121.08C123.134 120.923 123.487 120.69 123.784 120.396C124.026 120.156 124.224 119.874 124.367 119.565C124.052 124.813 122.07 129.824 118.71 133.869C115.351 137.913 110.788 140.78 105.686 142.051L86.892 142.078Z" fill="url(#paint0_linear_112_5843)"/>
<path d="M104.98 89.8C105.258 84.5252 107.219 79.4783 110.575 75.399C113.931 71.3198 118.505 68.4228 123.627 67.1325L141.558 67.1075L141.587 87.8209L107.921 87.8677C107.492 87.8627 107.067 87.9444 106.671 88.1079C106.293 88.263 105.949 88.4927 105.661 88.7835C105.372 89.076 105.14 89.4209 104.98 89.8Z" fill="url(#paint1_linear_112_5843)"/>
<path d="M84.0337 91.0753C84.0144 87.8801 84.648 84.7147 85.8958 81.7733C86.1497 81.1811 86.4285 80.5976 86.7312 80.0293C86.7398 80.0054 86.7485 79.9968 86.7484 79.9805C86.7513 79.9682 86.7569 79.9567 86.7647 79.9469C89.3331 75.075 93.499 71.2346 98.5635 69.0703C101.508 67.7959 104.684 67.145 107.893 67.1584L123.62 67.1365L123.439 67.1855C118.36 68.5079 113.833 71.4125 110.515 75.4789C107.196 79.5454 105.258 84.5626 104.981 89.804L104.981 89.8127C104.681 90.5953 104.676 91.4603 104.968 92.246C104.975 92.2622 104.984 92.2871 104.993 92.3034C105.15 92.6811 105.379 93.0244 105.668 93.3137C105.964 93.6095 106.318 93.842 106.707 93.997C107.096 94.1521 107.512 94.2264 107.93 94.2155L121.487 94.1967C122.161 94.1957 122.835 94.2186 123.502 94.2838C123.526 94.2838 123.551 94.2924 123.583 94.2924C126.074 94.4861 128.515 95.0936 130.805 96.0902C136.505 98.5343 141.047 103.076 143.492 108.775C143.814 109.509 144.095 110.261 144.334 111.026C145.049 113.317 145.409 115.704 145.404 118.104C145.423 121.307 144.781 124.479 143.518 127.422C141.075 133.11 136.549 137.649 130.867 140.108C129.208 140.837 127.466 141.359 125.68 141.661C125.614 141.679 125.566 141.686 125.533 141.695C125.517 141.699 125.5 141.702 125.483 141.703C124.185 141.922 122.87 142.032 121.554 142.033L105.686 142.055C110.788 140.784 115.351 137.917 118.711 133.873C122.071 129.828 124.052 124.817 124.368 119.569C124.402 119.508 124.432 119.444 124.457 119.379C124.619 118.985 124.7 118.563 124.694 118.138C124.698 117.692 124.614 117.25 124.446 116.837C124.429 116.791 124.406 116.748 124.38 116.706C124.238 116.377 124.033 116.079 123.778 115.827C123.481 115.532 123.128 115.3 122.739 115.143C122.35 114.987 121.935 114.91 121.516 114.918L107.959 114.936C104.758 114.958 101.585 114.327 98.6355 113.083C92.9001 110.681 88.334 106.128 85.9163 100.399C85.5968 99.6566 85.3183 98.8972 85.0818 98.1242C84.3824 95.8401 84.0291 93.4641 84.0337 91.0753Z" fill="url(#paint2_linear_112_5843)"/>
<g style="mix-blend-mode:multiply" opacity="0.16">
<path d="M104.98 89.8015C105.258 84.5267 107.219 79.4798 110.575 75.4006C113.931 71.3214 118.505 68.4243 123.627 67.134L128.626 67.127C124.434 69.1069 120.735 71.9945 117.797 75.5805C114.858 79.1666 112.755 83.3613 111.638 87.8608L107.923 87.866C107.494 87.861 107.069 87.9427 106.674 88.1062C106.295 88.2613 105.951 88.491 105.663 88.7817C105.372 89.075 105.14 89.4212 104.98 89.8015Z" fill="black"/>
</g>
<g style="mix-blend-mode:multiply" opacity="0.16">
<path d="M101.18 142.059C105.805 138.608 115.19 130.645 117.546 121.318L121.525 121.313C121.943 121.317 122.358 121.238 122.746 121.081C123.134 120.924 123.487 120.691 123.784 120.397C124.026 120.157 124.224 119.875 124.367 119.566C124.052 124.814 122.07 129.825 118.71 133.87C115.351 137.914 110.788 140.781 105.686 142.052L101.18 142.059Z" fill="black"/>
</g>
<g style="mix-blend-mode:screen" opacity="0.7">
<path d="M84.0349 91.0758C84.0156 87.8807 84.6493 84.7153 85.897 81.7738C86.1509 81.1816 86.4297 80.5981 86.7324 80.0298C86.6504 80.2521 86.3804 80.9603 85.9765 82.0458C85.3512 83.8916 84.9429 85.8039 84.7597 87.7441C84.6444 89.0291 84.6212 90.3209 84.6903 91.6093C84.7748 93.034 84.9747 94.4495 85.288 95.8419C85.4503 96.562 85.6516 97.2727 85.8914 97.9708C86.172 98.6933 86.4527 99.4257 86.7333 100.157C87.3628 101.595 88.1361 102.965 89.0411 104.247C89.9229 105.547 90.9421 106.747 92.0809 107.829C93.1779 108.878 94.368 109.825 95.6366 110.659C96.8399 111.438 98.1026 112.121 99.4134 112.701C100.594 113.207 101.812 113.621 103.057 113.938C104.951 114.405 106.888 114.68 108.838 114.76C110.269 114.867 111.083 114.929 111.083 114.929L107.967 114.934C104.766 114.955 101.593 114.325 98.6433 113.08C92.9078 110.679 88.3417 106.125 85.924 100.396C85.6046 99.654 85.326 98.8945 85.0896 98.1215C84.3883 95.8388 84.0328 93.4639 84.0349 91.0758Z" fill="white"/>
</g>
<g style="mix-blend-mode:screen" opacity="0.7">
<path d="M123.584 94.2935C126.074 94.4872 128.515 95.0948 130.806 96.0913C136.506 98.5354 141.048 103.077 143.493 108.776C143.815 109.511 144.096 110.262 144.335 111.027C145.049 113.319 145.41 115.705 145.405 118.106C145.423 121.308 144.781 124.48 143.519 127.423C141.075 133.112 136.549 137.65 130.867 140.109C129.209 140.838 127.467 141.36 125.681 141.662C126.577 141.446 127.46 141.181 128.328 140.87C134.212 138.759 139.077 134.495 141.942 128.938C143.836 125.289 144.724 121.202 144.515 117.096C144.449 115.032 144.089 112.989 143.446 111.028C143.257 110.527 143.075 110.025 142.893 109.533L142.762 109.163L142.728 109.072C142.72 109.057 142.715 109.04 142.712 109.023L142.629 108.843L142.316 108.144C141.899 107.24 141.423 106.364 140.89 105.523C139.88 103.922 138.689 102.442 137.34 101.113C136.116 99.9241 134.776 98.86 133.34 97.9368C132.115 97.1616 130.83 96.4846 129.497 95.9121C128.458 95.4717 127.385 95.113 126.29 94.8392C125.398 94.6119 124.495 94.4297 123.584 94.2935Z" fill="white"/>
</g>
<g style="mix-blend-mode:screen" opacity="0.7">
<path d="M105.686 142.053C110.787 140.781 115.35 137.914 118.71 133.87C122.07 129.826 124.052 124.815 124.367 119.566C124.402 119.505 124.432 119.442 124.457 119.376L124.391 119.582C124.417 120.232 124.418 120.889 124.419 121.547C124.371 122.204 124.298 122.862 124.233 123.529C124.125 124.179 123.98 124.83 123.857 125.48C123.693 126.131 123.472 126.755 123.284 127.405C123.068 128.038 122.801 128.648 122.539 129.272C122.26 129.881 121.932 130.465 121.637 131.066C121.293 131.65 120.915 132.201 120.555 132.777C120.161 133.319 119.751 133.855 119.34 134.383C118.898 134.893 118.429 135.378 117.978 135.873C117.485 136.333 117.004 136.794 116.491 137.239L114.89 138.466C114.331 138.837 113.765 139.183 113.19 139.537C112.59 139.834 112.006 140.156 111.407 140.445L109.55 141.17C108.899 141.361 108.268 141.55 107.626 141.715C106.985 141.846 106.335 141.953 105.686 142.053Z" fill="white"/>
</g>
<g style="mix-blend-mode:screen" opacity="0.7">
<path d="M104.833 89.8142C104.824 89.14 104.823 88.4821 104.839 87.8166C104.879 87.15 104.96 86.492 105.033 85.8264C105.147 85.1687 105.278 84.5106 105.425 83.8522C105.589 83.2016 105.801 82.5608 105.99 81.92C106.206 81.278 106.489 80.6696 106.746 80.0439C107.024 79.4268 107.344 78.8346 107.656 78.2337C107.993 77.6501 108.369 77.0903 108.73 76.5143C109.124 75.9631 109.535 75.4293 109.945 74.8933C110.388 74.3822 110.856 73.8884 111.308 73.387C111.8 72.9171 112.282 72.4557 112.794 72.0031L114.396 70.7674C114.955 70.3967 115.521 70.0347 116.096 69.6812L117.879 68.7499L119.744 67.9994L121.66 67.4375C122.153 67.3382 122.635 67.2389 123.123 67.1558L123.014 67.1397L123.582 67.0728C123.59 67.0641 123.607 67.0641 123.614 67.0641L123.623 67.1389L123.631 67.2126L123.442 67.1879C118.363 68.5102 113.836 71.4148 110.517 75.4814C107.199 79.5478 105.261 84.5649 104.983 89.8064L104.983 89.815C104.824 90.2065 104.747 90.6263 104.755 91.0488C104.695 90.6363 104.722 90.2159 104.833 89.8142Z" fill="white"/>
</g>
<defs>
<filter id="filter0_dd_112_5843" x="0" y="0" width="230" height="230" filterUnits="userSpaceOnUse" color-interpolation-filters="sRGB">
<feFlood flood-opacity="0" result="BackgroundImageFix"/>
<feColorMatrix in="SourceAlpha" type="matrix" values="0 0 0 0 0 0 0 0 0 0 0 0 0 0 0 0 0 0 127 0" result="hardAlpha"/>
<feOffset dy="10"/>
<feGaussianBlur stdDeviation="22"/>
<feColorMatrix type="matrix" values="0 0 0 0 0.0117647 0 0 0 0 0.105882 0 0 0 0 0.203922 0 0 0 0.07 0"/>
<feBlend mode="normal" in2="BackgroundImageFix" result="effect1_dropShadow_112_5843"/>
<feColorMatrix in="SourceAlpha" type="matrix" values="0 0 0 0 0 0 0 0 0 0 0 0 0 0 0 0 0 0 127 0" result="hardAlpha"/>
<feOffset/>
<feGaussianBlur stdDeviation="7"/>
<feColorMatrix type="matrix" values="0 0 0 0 0.0127604 0 0 0 0 0.104335 0 0 0 0 0.204167 0 0 0 0.02 0"/>
<feBlend mode="normal" in2="effect1_dropShadow_112_5843" result="effect2_dropShadow_112_5843"/>
<feBlend mode="normal" in="SourceGraphic" in2="effect2_dropShadow_112_5843" result="shape"/>
</filter>
<linearGradient id="paint0_linear_112_5843" x1="86.8764" y1="130.847" x2="122.845" y2="130.797" gradientUnits="userSpaceOnUse">
<stop offset="0.289583" stop-color="#BD00FF"/>
<stop offset="1" stop-color="#00FCCF"/>
</linearGradient>
<linearGradient id="paint1_linear_112_5843" x1="143.002" y1="78.4263" x2="108.442" y2="78.4744" gradientUnits="userSpaceOnUse">
<stop stop-color="#00FCCF"/>
<stop offset="1" stop-color="#BD00FF"/>
</linearGradient>
<linearGradient id="paint2_linear_112_5843" x1="114.772" y1="142.642" x2="114.664" y2="65.1265" gradientUnits="userSpaceOnUse">
<stop stop-color="#BA00FC"/>
<stop offset="1" stop-color="#00FCCF"/>
</linearGradient>
</defs>
</svg>
