<svg width="20" height="20" viewBox="0 0 20 20" fill="none" xmlns="http://www.w3.org/2000/svg">
<path d="M8.43206 16.0965C9.98844 16.0965 11.4469 15.6311 12.6607 14.8359L16.9481 19.0929C17.2319 19.3644 17.5941 19.5002 17.9856 19.5002C18.7981 19.5002 19.3952 18.8699 19.3952 18.0747C19.3952 17.7062 19.2679 17.3474 18.9939 17.0759L14.7359 12.8383C15.6168 11.5971 16.1356 10.0941 16.1356 8.46501C16.1356 4.26622 12.6705 0.833496 8.43206 0.833496C4.20343 0.833496 0.728516 4.26622 0.728516 8.46501C0.728516 12.6638 4.19364 16.0965 8.43206 16.0965ZM8.43206 14.0602C5.32911 14.0602 2.7841 11.5389 2.7841 8.46501C2.7841 5.39107 5.32911 2.86986 8.43206 2.86986C11.535 2.86986 14.08 5.39107 14.08 8.46501C14.08 11.5389 11.535 14.0602 8.43206 14.0602Z" fill="url(#paint0_linear_52_525)"/>
<defs>
<linearGradient id="paint0_linear_52_525" x1="19.3952" y1="0.833496" x2="0.728516" y2="19.5002" gradientUnits="userSpaceOnUse">
<stop stop-color="#00FCCF"/>
<stop offset="1" stop-color="#BD01FF"/>
</linearGradient>
</defs>
</svg>
