<svg width="127" height="18" viewBox="0 0 127 18" fill="none" xmlns="http://www.w3.org/2000/svg">
<path d="M7.66064 17.3032C6.54053 17.3032 5.56169 17.1872 4.72412 16.9551C3.88656 16.7129 3.18018 16.3748 2.60498 15.9409C2.03988 15.4969 1.60596 14.9671 1.30322 14.3516C1.00049 13.7259 0.823893 13.0246 0.773438 12.2476H1.96924C2.09033 12.9943 2.31738 13.6149 2.65039 14.1094C2.9834 14.6038 3.39209 14.9974 3.87646 15.29C4.37093 15.5827 4.93099 15.7896 5.55664 15.9106C6.18229 16.0317 6.84831 16.0923 7.55469 16.0923C8.29134 16.0923 8.95231 16.0166 9.5376 15.8652C10.133 15.7038 10.6375 15.4767 11.0513 15.1841C11.4751 14.8813 11.798 14.5231 12.02 14.1094C12.242 13.6855 12.353 13.2113 12.353 12.6865C12.353 12.1315 12.2572 11.6673 12.0654 11.2939C11.8737 10.9105 11.5508 10.5775 11.0967 10.2949C10.6426 10.0124 10.0422 9.76009 9.29541 9.53809C8.55876 9.31608 7.64046 9.08903 6.54053 8.85693C5.63232 8.65511 4.85026 8.42301 4.19434 8.16064C3.5485 7.89827 3.01367 7.59554 2.58984 7.25244C2.16602 6.89925 1.85319 6.50065 1.65137 6.05664C1.44954 5.60254 1.34863 5.0778 1.34863 4.48242C1.34863 3.83659 1.48486 3.24626 1.75732 2.71143C2.02979 2.1766 2.41325 1.71745 2.90771 1.33398C3.41227 0.950521 4.0127 0.652832 4.70898 0.440918C5.41536 0.229004 6.19238 0.123047 7.04004 0.123047C7.8877 0.123047 8.66471 0.223958 9.37109 0.425781C10.0775 0.617513 10.693 0.900065 11.2178 1.27344C11.7526 1.64681 12.1815 2.10091 12.5044 2.63574C12.8374 3.17057 13.0493 3.77604 13.1401 4.45215H11.9746C11.8636 4.00814 11.682 3.5944 11.4297 3.21094C11.1774 2.82747 10.8494 2.49951 10.4458 2.22705C10.0522 1.9445 9.57796 1.72754 9.02295 1.57617C8.47803 1.41471 7.85238 1.33398 7.146 1.33398C5.6626 1.33398 4.53743 1.60645 3.77051 2.15137C3.01367 2.69629 2.63525 3.44303 2.63525 4.3916C2.63525 4.82552 2.70589 5.20394 2.84717 5.52686C2.98844 5.84977 3.22559 6.14242 3.55859 6.40479C3.90169 6.65706 4.35075 6.88411 4.90576 7.08594C5.46077 7.27767 6.15202 7.45931 6.97949 7.63086C7.46387 7.73177 7.96338 7.83773 8.47803 7.94873C8.99268 8.05973 9.49219 8.19092 9.97656 8.34229C10.471 8.49365 10.9403 8.68034 11.3843 8.90234C11.8283 9.12435 12.2118 9.39681 12.5347 9.71973C12.8677 10.0426 13.13 10.4312 13.3218 10.8853C13.5236 11.3293 13.6245 11.859 13.6245 12.4746C13.6245 13.181 13.4731 13.8319 13.1704 14.4272C12.8778 15.0125 12.464 15.5221 11.9292 15.9561C11.4045 16.3799 10.7738 16.7129 10.0371 16.9551C9.31055 17.1872 8.51839 17.3032 7.66064 17.3032Z" fill="url(#paint0_linear_131_8327)"/>
<path d="M29.3213 4.86084C29.2103 4.36637 29.0034 3.90723 28.7007 3.4834C28.3979 3.04948 28.0195 2.67611 27.5654 2.36328C27.1113 2.04036 26.5866 1.78809 25.9912 1.60645C25.4059 1.4248 24.7752 1.33398 24.0991 1.33398C23.1405 1.33398 22.2676 1.4904 21.4805 1.80322C20.7035 2.11605 20.0374 2.58024 19.4824 3.1958C18.9375 3.80127 18.5137 4.56315 18.2109 5.48145C17.9183 6.38965 17.772 7.44922 17.772 8.66016C17.772 9.87109 17.9183 10.9408 18.2109 11.8691C18.5137 12.7874 18.9375 13.5594 19.4824 14.1851C20.0374 14.8107 20.6984 15.285 21.4653 15.6079C22.2424 15.9308 23.1051 16.0923 24.0537 16.0923C25.4867 16.0923 26.6673 15.7744 27.5957 15.1387C28.5241 14.4928 29.0993 13.5544 29.3213 12.3232H30.5776C30.4565 13.1104 30.2093 13.8167 29.8359 14.4424C29.4626 15.0579 28.9933 15.5776 28.4282 16.0015C27.8631 16.4253 27.2122 16.7482 26.4756 16.9702C25.7389 17.1922 24.9417 17.3032 24.084 17.3032C22.9134 17.3032 21.8589 17.1014 20.9204 16.6978C19.992 16.284 19.1999 15.7038 18.5439 14.957C17.888 14.2103 17.3835 13.3071 17.0303 12.2476C16.6771 11.1779 16.5005 9.9821 16.5005 8.66016C16.5005 7.34831 16.6771 6.16764 17.0303 5.11816C17.3835 4.06868 17.888 3.17562 18.5439 2.43896C19.21 1.69222 20.0072 1.12207 20.9355 0.728516C21.874 0.32487 22.9235 0.123047 24.084 0.123047C24.8812 0.123047 25.638 0.239095 26.3545 0.471191C27.0811 0.703288 27.7319 1.03125 28.3071 1.45508C28.8823 1.86882 29.3667 2.36833 29.7603 2.95361C30.1538 3.52881 30.4263 4.16455 30.5776 4.86084H29.3213Z" fill="url(#paint1_linear_131_8327)"/>
<path d="M46.9253 17.0005H45.6992V8.75098H35.4819V17.0005H34.271V0.425781H35.4819V7.54004H45.6992V0.425781H46.9253V17.0005Z" fill="url(#paint2_linear_131_8327)"/>
<path d="M63.2427 17.0005H51.2695V0.425781H62.834V1.63672H52.4805V7.76709H62.1831V8.97803H52.4805V15.7896H63.2427V17.0005Z" fill="url(#paint3_linear_131_8327)"/>
<path d="M80.332 8.58447C80.332 14.1951 77.5418 17.0005 71.9614 17.0005H66.9512V0.440918H71.9614C74.7567 0.440918 76.8506 1.11702 78.2432 2.46924C79.6357 3.81136 80.332 5.84977 80.332 8.58447ZM79.0454 8.58447C79.0454 7.49463 78.9344 6.52083 78.7124 5.66309C78.5005 4.80534 78.1221 4.07878 77.5771 3.4834C77.0322 2.87793 76.3006 2.41878 75.3823 2.10596C74.4741 1.79313 73.3237 1.63672 71.9312 1.63672H68.1621V15.7896H71.9312C73.3136 15.7896 74.459 15.6281 75.3672 15.3052C76.2855 14.9823 77.0171 14.513 77.562 13.8975C78.1069 13.2718 78.4904 12.515 78.7124 11.627C78.9344 10.7389 79.0454 9.72477 79.0454 8.58447Z" fill="url(#paint4_linear_131_8327)"/>
<path d="M90.2769 17.3032C89.2879 17.3032 88.4403 17.2023 87.7339 17.0005C87.0376 16.7886 86.4574 16.506 85.9932 16.1528C85.529 15.7996 85.1606 15.3859 84.8882 14.9116C84.6157 14.4373 84.4089 13.9328 84.2676 13.3979C84.1263 12.8631 84.0355 12.3081 83.9951 11.7329C83.9648 11.1577 83.9497 10.5977 83.9497 10.0527V0.425781H85.1606V10.0073C85.1606 11.2687 85.2716 12.298 85.4937 13.0952C85.7257 13.8823 86.0588 14.4979 86.4927 14.9419C86.9367 15.3859 87.4715 15.6886 88.0972 15.8501C88.7329 16.0116 89.4595 16.0923 90.2769 16.0923C91.1043 16.0923 91.8359 16.0116 92.4717 15.8501C93.1175 15.6886 93.6523 15.3859 94.0762 14.9419C94.5101 14.4878 94.8381 13.8672 95.0601 13.0801C95.2821 12.293 95.3931 11.2687 95.3931 10.0073V0.425781H96.604V10.0527C96.604 11.193 96.5081 12.2122 96.3164 13.1104C96.1247 14.0085 95.7917 14.7703 95.3174 15.396C94.8431 16.0116 94.1973 16.4858 93.3799 16.8188C92.5625 17.1418 91.5282 17.3032 90.2769 17.3032Z" fill="url(#paint5_linear_131_8327)"/>
<path d="M110.742 17.0005H100.979V0.425781H102.189V15.7896H110.742V17.0005Z" fill="url(#paint6_linear_131_8327)"/>
<path d="M126.03 17.0005H114.057V0.425781H125.621V1.63672H115.268V7.76709H124.97V8.97803H115.268V15.7896H126.03V17.0005Z" fill="url(#paint7_linear_131_8327)"/>
<defs>
<linearGradient id="paint0_linear_131_8327" x1="78.3846" y1="-12.24" x2="40.0734" y2="11.1461" gradientUnits="userSpaceOnUse">
<stop stop-color="#14C9B2"/>
<stop offset="0.497917" stop-color="#5F7DE6"/>
<stop offset="1" stop-color="#BD01FF"/>
</linearGradient>
<linearGradient id="paint1_linear_131_8327" x1="78.3846" y1="-12.24" x2="40.0734" y2="11.1461" gradientUnits="userSpaceOnUse">
<stop stop-color="#14C9B2"/>
<stop offset="0.497917" stop-color="#5F7DE6"/>
<stop offset="1" stop-color="#BD01FF"/>
</linearGradient>
<linearGradient id="paint2_linear_131_8327" x1="78.3846" y1="-12.24" x2="40.0734" y2="11.1461" gradientUnits="userSpaceOnUse">
<stop stop-color="#14C9B2"/>
<stop offset="0.497917" stop-color="#5F7DE6"/>
<stop offset="1" stop-color="#BD01FF"/>
</linearGradient>
<linearGradient id="paint3_linear_131_8327" x1="78.3846" y1="-12.24" x2="40.0734" y2="11.1461" gradientUnits="userSpaceOnUse">
<stop stop-color="#14C9B2"/>
<stop offset="0.497917" stop-color="#5F7DE6"/>
<stop offset="1" stop-color="#BD01FF"/>
</linearGradient>
<linearGradient id="paint4_linear_131_8327" x1="78.3846" y1="-12.24" x2="40.0734" y2="11.1461" gradientUnits="userSpaceOnUse">
<stop stop-color="#14C9B2"/>
<stop offset="0.497917" stop-color="#5F7DE6"/>
<stop offset="1" stop-color="#BD01FF"/>
</linearGradient>
<linearGradient id="paint5_linear_131_8327" x1="78.3846" y1="-12.24" x2="40.0734" y2="11.1461" gradientUnits="userSpaceOnUse">
<stop stop-color="#14C9B2"/>
<stop offset="0.497917" stop-color="#5F7DE6"/>
<stop offset="1" stop-color="#BD01FF"/>
</linearGradient>
<linearGradient id="paint6_linear_131_8327" x1="78.3846" y1="-12.24" x2="40.0734" y2="11.1461" gradientUnits="userSpaceOnUse">
<stop stop-color="#14C9B2"/>
<stop offset="0.497917" stop-color="#5F7DE6"/>
<stop offset="1" stop-color="#BD01FF"/>
</linearGradient>
<linearGradient id="paint7_linear_131_8327" x1="78.3846" y1="-12.24" x2="40.0734" y2="11.1461" gradientUnits="userSpaceOnUse">
<stop stop-color="#14C9B2"/>
<stop offset="0.497917" stop-color="#5F7DE6"/>
<stop offset="1" stop-color="#BD01FF"/>
</linearGradient>
</defs>
</svg>
