<svg width="17" height="9" viewBox="0 0 17 9" fill="none" xmlns="http://www.w3.org/2000/svg">
<path d="M8.07129 0.150391C7.76394 0.150391 7.5018 0.258034 7.26677 0.481602L0.369594 6.94023C0.170724 7.11411 0.0712889 7.34596 0.0712889 7.61093C0.0712889 8.14915 0.523266 8.57144 1.11988 8.57144C1.40914 8.57144 1.67129 8.4638 1.87016 8.28163L8.07129 2.46059L14.2724 8.28163C14.4803 8.4638 14.7425 8.57144 15.0317 8.57144C15.6193 8.57144 16.0713 8.14915 16.0713 7.61093C16.0713 7.34596 15.9719 7.11411 15.773 6.94023L8.87581 0.481602C8.64078 0.258034 8.37863 0.158671 8.07129 0.150391Z" fill="#1E1E1E"/>
</svg>
