<svg width="176" height="141" viewBox="0 0 176 141" fill="none" xmlns="http://www.w3.org/2000/svg">
<path fill-rule="evenodd" clip-rule="evenodd" d="M168.75 52.3843C168.75 49.1791 166.987 46.2334 164.163 44.7179L83.6837 1.53396C81.1145 0.155348 78.0255 0.155346 75.4563 1.53396L4.67803 39.5125C-1.4376 42.7941 -1.4376 51.5639 4.67803 54.8455L75.4563 92.8241C78.0255 94.2027 81.1145 94.2027 83.6837 92.8241L155.376 54.3551C156.342 53.8368 157.511 54.5366 157.511 55.6329V89.9065C153.421 92.0126 150.624 96.2767 150.624 101.194C150.624 108.202 156.304 113.882 163.312 113.882C170.319 113.882 176 108.202 176 101.194C176 96.1328 173.036 91.7635 168.75 89.7271V52.3843ZM133.948 87.6251C133.948 84.3361 130.439 82.2368 127.541 83.7918L83.6837 107.325C81.1145 108.703 78.0255 108.703 75.4563 107.325L31.9619 83.9864C29.0638 82.4313 25.5548 84.5307 25.5548 87.8196V108.695C25.5548 111.9 27.3171 114.846 30.1415 116.361L71.3426 138.469C76.481 141.226 82.659 141.226 87.7975 138.469L129.361 116.167C132.185 114.651 133.948 111.706 133.948 108.5V87.6251Z" fill="white"/>
</svg>
