<svg width="104" height="127" viewBox="0 0 104 127" fill="none" xmlns="http://www.w3.org/2000/svg">
<path d="M4.85625 126.026L4.80783 91.2339L63.0164 91.1528C63.719 91.1597 64.4162 91.0275 65.0676 90.7634C65.7188 90.4995 66.3115 90.1091 66.8112 89.615C67.2176 89.2114 67.5491 88.739 67.7903 88.2194C67.2612 97.0335 63.9333 105.449 58.2906 112.241C52.6481 119.032 44.9854 123.847 36.4178 125.982L4.85625 126.026Z" fill="url(#paint0_linear_2_5747)"/>
<path d="M35.2317 38.234C35.6995 29.3757 38.9926 20.9003 44.6283 14.0497C50.2638 7.19938 57.9454 2.33414 66.5473 0.167281L96.66 0.125372L96.7084 34.9104L40.1707 34.9891C39.4514 34.9806 38.7375 35.1179 38.0726 35.3924C37.4367 35.6529 36.8597 36.0386 36.376 36.5269C35.8896 37.0181 35.5013 37.5975 35.2317 38.234Z" fill="url(#paint1_linear_2_5747)"/>
<path d="M0.0562059 40.375C0.0238052 35.0092 1.08793 29.6934 3.18334 24.7537C3.6097 23.7593 4.07793 22.7794 4.58625 21.8249C4.60076 21.7848 4.6153 21.7703 4.61526 21.743C4.61996 21.7224 4.62941 21.7031 4.64248 21.6865C8.9558 13.5049 15.9519 7.0556 24.4568 3.42092C29.4016 1.28081 34.736 0.187663 40.1239 0.210202L66.5362 0.173442L66.2324 0.255767C57.7022 2.4764 50.1001 7.35428 44.527 14.1833C38.9537 21.0123 35.6988 29.4379 35.2333 38.2401L35.2333 38.2547C34.7302 39.569 34.7226 41.0215 35.2117 42.341C35.2245 42.3683 35.2391 42.4101 35.2537 42.4374C35.5172 43.0717 35.9026 43.6482 36.3882 44.134C36.8856 44.6308 37.479 45.0213 38.132 45.2816C38.7851 45.5421 39.4844 45.6669 40.1872 45.6486L62.9537 45.6169C64.0858 45.6153 65.218 45.6538 66.3375 45.7633C66.3776 45.7632 66.4195 45.7777 66.4741 45.7776C70.6565 46.1029 74.7555 47.1232 78.6024 48.7968C88.1742 52.9014 95.802 60.5282 99.9079 70.0994C100.448 71.3325 100.921 72.5945 101.322 73.8797C102.522 77.7275 103.128 81.7359 103.119 85.7665C103.15 91.1445 102.072 96.4711 99.9514 101.413C95.8485 110.967 88.2472 118.589 78.7052 122.719C75.9203 123.943 72.9951 124.819 69.9958 125.326C69.8848 125.356 69.8029 125.369 69.7483 125.383C69.7208 125.39 69.6928 125.395 69.6646 125.396C67.4842 125.764 65.2768 125.95 63.0655 125.951L36.4184 125.988C44.9862 123.853 52.6489 119.039 58.2914 112.247C63.9339 105.455 67.2618 97.0397 67.7909 88.2256C67.849 88.1232 67.8994 88.0166 67.9415 87.9068C68.2133 87.2459 68.3484 86.5368 68.3391 85.8222C68.3458 85.0739 68.2045 84.3319 67.9228 83.6386C67.8934 83.5614 67.8562 83.4878 67.8115 83.4185C67.5728 82.8659 67.2298 82.3645 66.8011 81.9419C66.302 81.4465 65.7087 81.0561 65.0561 80.7938C64.4036 80.5314 63.7052 80.4026 63.0021 80.4146L40.2356 80.4463C34.8592 80.4824 29.5318 79.4234 24.5779 77.3338C14.946 73.3005 7.27793 65.6537 3.21777 56.0331C2.68128 54.7861 2.21354 53.5108 1.8164 52.2127C0.641791 48.3769 0.0485064 44.3866 0.0562059 40.375Z" fill="url(#paint2_linear_2_5747)"/>
<g style="mix-blend-mode:multiply" opacity="0.16">
<path d="M35.2322 38.236C35.7 29.3777 38.9931 20.9023 44.6286 14.0517C50.2641 7.20138 57.9458 2.33614 66.5476 0.169282L74.9422 0.157599C67.9024 3.48245 61.6904 8.33181 56.7564 14.3539C51.8221 20.3763 48.2895 27.4206 46.4143 34.9769L40.1747 34.9856C39.4553 34.9771 38.7416 35.1145 38.0768 35.389C37.4406 35.6494 36.8636 36.0352 36.3799 36.5235C35.8917 37.0159 35.5021 37.5973 35.2322 38.236Z" fill="black"/>
</g>
<g style="mix-blend-mode:multiply" opacity="0.16">
<path d="M28.8514 125.994C36.6172 120.198 52.3792 106.826 56.3345 91.1631L63.0164 91.1538C63.719 91.1607 64.4162 91.0285 65.0676 90.7644C65.7188 90.5004 66.3115 90.1101 66.8112 89.616C67.2176 89.2124 67.5491 88.74 67.7903 88.2204C67.2612 97.0345 63.9333 105.45 58.2906 112.242C52.6481 119.033 44.9854 123.848 36.4178 125.983L28.8514 125.994Z" fill="black"/>
</g>
<g style="mix-blend-mode:screen" opacity="0.7">
<path d="M0.058205 40.3754C0.0258007 35.0098 1.08993 29.694 3.18534 24.7541C3.61169 23.7597 4.07994 22.7798 4.58825 21.8253C4.45044 22.1987 3.99705 23.3881 3.31885 25.211C2.26875 28.3107 1.58301 31.5221 1.27539 34.7804C1.08181 36.9385 1.04279 39.1078 1.15883 41.2714C1.30067 43.664 1.63634 46.0412 2.16253 48.3794C2.43506 49.5887 2.77326 50.7822 3.17587 51.9546C3.64716 53.168 4.11848 54.3979 4.58979 55.6259C5.64684 58.0403 6.94545 60.3417 8.46537 62.4951C9.94619 64.6772 11.6578 66.6936 13.5702 68.5092C15.4125 70.2713 17.411 71.8623 19.5415 73.2625C21.5622 74.5707 23.6828 75.7174 25.884 76.6917C27.8666 77.5417 29.9124 78.2362 32.0027 78.7693C35.1845 79.5535 38.4372 80.0161 41.7115 80.1498C44.1144 80.3285 45.4814 80.434 45.4814 80.434L40.2485 80.4413C34.8722 80.4775 29.5447 79.4185 24.5908 77.3288C14.9589 73.2954 7.29084 65.6487 3.23068 56.0282C2.69419 54.7812 2.22645 53.5058 1.82931 52.2077C0.651606 48.3742 0.0546848 44.386 0.058205 40.3754Z" fill="white"/>
</g>
<g style="mix-blend-mode:screen" opacity="0.7">
<path d="M66.4749 45.7786C70.6574 46.1038 74.7564 47.1243 78.6032 48.7977C88.1751 52.9023 95.8029 60.5291 99.9087 70.1003C100.449 71.3335 100.921 72.5955 101.323 73.8807C102.523 77.7284 103.129 81.7369 103.119 85.7675C103.151 91.1454 102.073 96.472 99.9523 101.414C95.8493 110.968 88.248 118.59 78.7061 122.72C75.9211 123.944 72.9959 124.82 69.9966 125.327C71.501 124.963 72.9848 124.519 74.4414 123.996C84.3234 120.451 92.4935 113.291 97.3039 103.959C100.485 97.8311 101.977 90.9667 101.626 84.0713C101.515 80.6064 100.91 77.1752 99.8303 73.8809C99.5124 73.0405 99.2072 72.1981 98.9021 71.3704L98.681 70.75L98.6244 70.5972C98.6116 70.5714 98.6024 70.5437 98.5969 70.5153L98.4582 70.2116L97.9324 69.0383C97.233 67.5196 96.4332 66.0491 95.5382 64.6368C93.8415 61.9479 91.8409 59.4631 89.576 57.2316C87.5202 55.2343 85.2702 53.4473 82.8594 51.897C80.8014 50.5952 78.6435 49.4582 76.4059 48.4968C74.6599 47.7572 72.8589 47.1548 71.0193 46.6951C69.521 46.3133 68.0042 46.0074 66.4749 45.7786Z" fill="white"/>
</g>
<g style="mix-blend-mode:screen" opacity="0.7">
<path d="M36.4181 125.983C44.9857 123.848 52.6484 119.034 58.2909 112.242C63.9336 105.45 67.2615 97.0347 67.7906 88.2206C67.8487 88.1182 67.8991 88.0116 67.9412 87.9018L67.8307 88.2478C67.874 89.3398 67.8756 90.4429 67.8771 91.5477C67.7967 92.6508 67.6745 93.7558 67.565 94.8754C67.3845 95.9677 67.1403 97.0602 66.9344 98.1525C66.6592 99.245 66.2875 100.294 65.9724 101.385C65.6098 102.448 65.1598 103.472 64.7208 104.521C64.2526 105.542 63.7007 106.524 63.2052 107.533C62.6277 108.513 61.9938 109.439 61.389 110.406C60.7277 111.317 60.0391 112.217 59.3487 113.103C58.6055 113.96 57.8185 114.774 57.0606 115.605C56.2335 116.378 55.4246 117.153 54.5647 117.9L51.8756 119.961C50.9372 120.583 49.9861 121.165 49.0204 121.759C48.0128 122.258 47.0324 122.798 46.0266 123.283L42.9067 124.502C41.815 124.822 40.7543 125.14 39.6772 125.416C38.6 125.636 37.5081 125.816 36.4181 125.983Z" fill="white"/>
</g>
<g style="mix-blend-mode:screen" opacity="0.7">
<path d="M34.9849 38.256C34.9706 37.1239 34.9691 36.0191 34.9948 34.9014C35.0624 33.7819 35.1992 32.6769 35.3214 31.5592C35.5128 30.4546 35.7321 29.3495 35.9794 28.2437C36.2545 27.1513 36.6116 26.0751 36.9286 24.9989C37.2911 23.9209 37.7666 22.8991 38.1983 21.8483C38.6647 20.8119 39.202 19.8174 39.7267 18.8083C40.2914 17.8282 40.9235 16.8882 41.5301 15.9208C42.1913 14.9953 42.8817 14.0988 43.5703 13.1987C44.3136 12.3403 45.1005 11.5111 45.8584 10.6691C46.6855 9.87981 47.4943 9.10512 48.3542 8.34491L51.0452 6.26982C51.9835 5.6473 52.9352 5.03931 53.9003 4.44569L56.8941 2.88166L60.0267 1.62138L63.2434 0.677703C64.0713 0.510917 64.8811 0.344152 65.6999 0.204679L65.5179 0.177631L66.4715 0.0652769C66.4842 0.0506984 66.5133 0.0506541 66.5261 0.0506364L66.5408 0.176207L66.5537 0.299961L66.237 0.258532C57.7068 2.47917 50.1048 7.35704 44.5315 14.1862C38.9584 21.0152 35.7034 29.4407 35.2379 38.2429L35.2379 38.2575C34.9709 38.9149 34.8405 39.6199 34.8549 40.3294C34.7539 39.6367 34.7982 38.9306 34.9849 38.256Z" fill="white"/>
</g>
<defs>
<linearGradient id="paint0_linear_2_5747" x1="4.83" y1="107.167" x2="65.2341" y2="107.083" gradientUnits="userSpaceOnUse">
<stop offset="0.289583" stop-color="#BD00FF"/>
<stop offset="1" stop-color="#00FCCF"/>
</linearGradient>
<linearGradient id="paint1_linear_2_5747" x1="99.0842" y1="19.1336" x2="41.0459" y2="19.2143" gradientUnits="userSpaceOnUse">
<stop stop-color="#00FCCF"/>
<stop offset="1" stop-color="#BD00FF"/>
</linearGradient>
<linearGradient id="paint2_linear_2_5747" x1="51.6763" y1="126.973" x2="51.4952" y2="-3.20206" gradientUnits="userSpaceOnUse">
<stop stop-color="#BA00FC"/>
<stop offset="1" stop-color="#00FCCF"/>
</linearGradient>
</defs>
</svg>
