<svg width="20" height="20" viewBox="0 0 20 20" fill="none" xmlns="http://www.w3.org/2000/svg">
<path d="M8.43206 16.096C9.98844 16.096 11.4469 15.6306 12.6607 14.8354L16.9481 19.0924C17.2319 19.3639 17.5941 19.4997 17.9856 19.4997C18.7981 19.4997 19.3952 18.8694 19.3952 18.0742C19.3952 17.7057 19.2679 17.3469 18.9939 17.0754L14.7359 12.8379C15.6168 11.5966 16.1356 10.0936 16.1356 8.46452C16.1356 4.26574 12.6705 0.833008 8.43206 0.833008C4.20343 0.833008 0.728516 4.26574 0.728516 8.46452C0.728516 12.6633 4.19364 16.096 8.43206 16.096ZM8.43206 14.0597C5.32911 14.0597 2.7841 11.5385 2.7841 8.46452C2.7841 5.39058 5.32911 2.86937 8.43206 2.86937C11.535 2.86937 14.08 5.39058 14.08 8.46452C14.08 11.5385 11.535 14.0597 8.43206 14.0597Z" fill="#8E8E93"/>
</svg>
