<svg width="28" height="28" viewBox="0 0 28 28" fill="none" xmlns="http://www.w3.org/2000/svg">
<path d="M11.2035 21.097C12.7599 21.097 14.2184 20.6316 15.4322 19.8364L19.7195 24.0934C20.0034 24.3649 20.3656 24.5007 20.7571 24.5007C21.5696 24.5007 22.1667 23.8703 22.1667 23.0752C22.1667 22.7067 22.0394 22.3479 21.7653 22.0764L17.5073 17.8388C18.3883 16.5976 18.9071 15.0946 18.9071 13.4655C18.9071 9.26671 15.442 5.83398 11.2035 5.83398C6.97492 5.83398 3.5 9.26671 3.5 13.4655C3.5 17.6643 6.96513 21.097 11.2035 21.097ZM11.2035 19.0607C8.10059 19.0607 5.55558 16.5394 5.55558 13.4655C5.55558 10.3916 8.10059 7.87035 11.2035 7.87035C14.3065 7.87035 16.8515 10.3916 16.8515 13.4655C16.8515 16.5394 14.3065 19.0607 11.2035 19.0607Z" fill="#8E8E93"/>
</svg>
