<svg width="28" height="28" viewBox="0 0 28 28" fill="none" xmlns="http://www.w3.org/2000/svg">
<path d="M3.68333 9.36667H24.9833C25.2972 9.36667 25.5982 9.24199 25.8201 9.02008C26.042 8.79816 26.1667 8.49717 26.1667 8.18333C26.1667 7.86949 26.042 7.56851 25.8201 7.34659C25.5982 7.12467 25.2972 7 24.9833 7H3.68333C3.36949 7 3.06851 7.12467 2.84659 7.34659C2.62467 7.56851 2.5 7.86949 2.5 8.18333C2.5 8.49717 2.62467 8.79816 2.84659 9.02008C3.06851 9.24199 3.36949 9.36667 3.68333 9.36667ZM24.9833 18.8333H3.68333C3.36949 18.8333 3.06851 18.958 2.84659 19.1799C2.62467 19.4018 2.5 19.7028 2.5 20.0167C2.5 20.3305 2.62467 20.6315 2.84659 20.8534C3.06851 21.0753 3.36949 21.2 3.68333 21.2H24.9833C25.2972 21.2 25.5982 21.0753 25.8201 20.8534C26.042 20.6315 26.1667 20.3305 26.1667 20.0167C26.1667 19.7028 26.042 19.4018 25.8201 19.1799C25.5982 18.958 25.2972 18.8333 24.9833 18.8333ZM24.9833 12.9167H3.68333C3.36949 12.9167 3.06851 13.0413 2.84659 13.2633C2.62467 13.4852 2.5 13.7862 2.5 14.1C2.5 14.4138 2.62467 14.7148 2.84659 14.9367C3.06851 15.1587 3.36949 15.2833 3.68333 15.2833H24.9833C25.2972 15.2833 25.5982 15.1587 25.8201 14.9367C26.042 14.7148 26.1667 14.4138 26.1667 14.1C26.1667 13.7862 26.042 13.4852 25.8201 13.2633C25.5982 13.0413 25.2972 12.9167 24.9833 12.9167Z" fill="#8E8E93"/>
</svg>
