<svg width="22" height="21" viewBox="0 0 22 21" fill="none" xmlns="http://www.w3.org/2000/svg">
<path d="M18.8682 2.5H15.8683V1C15.8683 0.723877 15.6444 0.5 15.3683 0.5C15.0922 0.5 14.8683 0.723877 14.8683 1V2.5H7.86849V1C7.86849 0.723877 7.64462 0.5 7.36851 0.5C7.09239 0.5 6.86852 0.723877 6.86852 1V2.5H3.8681C2.48801 2.50146 1.36963 3.61987 1.36816 5V18C1.36963 19.3801 2.48801 20.4985 3.8681 20.5H18.8682C20.2484 20.4987 21.3669 19.3802 21.3682 18V5C21.3669 3.61981 20.2484 2.50128 18.8682 2.5ZM20.3682 18C20.3673 18.8281 19.6963 19.4991 18.8682 19.5H3.8681C3.04006 19.4991 2.36906 18.8281 2.36814 18V9.5H20.3682V18ZM20.3682 8.5H2.36814V5C2.36906 4.17194 3.04006 3.50092 3.8681 3.5H6.86852V5C6.8687 5.27594 7.09251 5.50018 7.36851 5.5C7.64444 5.49982 7.86868 5.276 7.86849 5V3.5H14.8683V5C14.8685 5.27594 15.0923 5.50018 15.3683 5.5C15.6442 5.49982 15.8685 5.276 15.8683 5V3.5H18.8682C19.6963 3.50092 20.3673 4.17194 20.3682 5V8.5Z" fill="#8E8E93" stroke="#8E8E93"/>
</svg>
