<svg width="22" height="17" viewBox="0 0 22 17" fill="none" xmlns="http://www.w3.org/2000/svg">
<path d="M0.95459 12.6573C0.95459 14.4038 1.8801 15.3179 3.64921 15.3179H12.1917C11.8887 14.8282 11.6757 14.2732 11.5775 13.6938H3.64102C2.96122 13.6938 2.58447 13.3428 2.58447 12.6247V5.11628C2.58447 4.39809 2.96122 4.04715 3.64102 4.04715H14.9355C15.6153 4.04715 15.9921 4.39809 15.9921 5.11628V7.3035C16.2787 7.25453 16.549 7.23005 16.8193 7.23005C17.0896 7.23005 17.3598 7.25453 17.6301 7.29534V2.72503C17.6301 0.978516 16.7046 0.0644531 14.9273 0.0644531H3.64921C1.8801 0.0644531 0.95459 0.970354 0.95459 2.72503V12.6573ZM7.71162 6.86279H8.19485C8.4897 6.86279 8.58799 6.77302 8.58799 6.48737V6.00586C8.58799 5.71205 8.4897 5.62228 8.19485 5.62228H7.71162C7.41677 5.62228 7.31849 5.71205 7.31849 6.00586V6.48737C7.31849 6.77302 7.41677 6.86279 7.71162 6.86279ZM10.3899 6.86279H10.8731C11.1598 6.86279 11.258 6.77302 11.258 6.48737V6.00586C11.258 5.71205 11.1598 5.62228 10.8731 5.62228H10.3899C10.095 5.62228 9.99673 5.71205 9.99673 6.00586V6.48737C9.99673 6.77302 10.095 6.86279 10.3899 6.86279ZM13.0599 6.86279H13.5431C13.838 6.86279 13.9363 6.77302 13.9363 6.48737V6.00586C13.9363 5.71205 13.838 5.62228 13.5431 5.62228H13.0599C12.7733 5.62228 12.675 5.71205 12.675 6.00586V6.48737C12.675 6.77302 12.7733 6.86279 13.0599 6.86279ZM5.04157 9.49072H5.51661C5.81146 9.49072 5.90975 9.40095 5.90975 9.10714V8.62563C5.90975 8.33998 5.81146 8.25021 5.51661 8.25021H5.04157C4.74672 8.25021 4.64843 8.33998 4.64843 8.62563V9.10714C4.64843 9.40095 4.74672 9.49072 5.04157 9.49072ZM7.71162 9.49072H8.19485C8.4897 9.49072 8.58799 9.40095 8.58799 9.10714V8.62563C8.58799 8.33998 8.4897 8.25021 8.19485 8.25021H7.71162C7.41677 8.25021 7.31849 8.33998 7.31849 8.62563V9.10714C7.31849 9.40095 7.41677 9.49072 7.71162 9.49072ZM10.3899 9.49072H10.8731C11.1598 9.49072 11.258 9.40095 11.258 9.10714V8.62563C11.258 8.33998 11.1598 8.25021 10.8731 8.25021H10.3899C10.095 8.25021 9.99673 8.33998 9.99673 8.62563V9.10714C9.99673 9.40095 10.095 9.49072 10.3899 9.49072ZM16.8193 16.8032C19.1126 16.8032 21.0455 14.8935 21.0455 12.592C21.0455 10.2905 19.1371 8.38895 16.8193 8.38895C14.5096 8.38895 12.6013 10.2905 12.6013 12.592C12.6013 14.9016 14.5096 16.8032 16.8193 16.8032ZM14.87 13.2939C14.5424 13.2939 14.2885 13.0327 14.2885 12.7144C14.2885 12.4043 14.5506 12.1513 14.87 12.1513H16.2951V10.2416C16.2951 9.92327 16.549 9.67843 16.8684 9.67843C17.1878 9.67843 17.4499 9.92327 17.4499 10.2416V12.7144C17.4499 13.0409 17.196 13.2939 16.8684 13.2939H14.87ZM5.04157 12.1105H5.51661C5.81146 12.1105 5.90975 12.0207 5.90975 11.7351V11.2536C5.90975 10.9598 5.81146 10.87 5.51661 10.87H5.04157C4.74672 10.87 4.64843 10.9598 4.64843 11.2536V11.7351C4.64843 12.0207 4.74672 12.1105 5.04157 12.1105ZM7.71162 12.1105H8.19485C8.4897 12.1105 8.58799 12.0207 8.58799 11.7351V11.2536C8.58799 10.9598 8.4897 10.87 8.19485 10.87H7.71162C7.41677 10.87 7.31849 10.9598 7.31849 11.2536V11.7351C7.31849 12.0207 7.41677 12.1105 7.71162 12.1105ZM10.3899 12.1105H10.8731C11.1598 12.1105 11.258 12.0207 11.258 11.7351V11.2536C11.258 10.9598 11.1598 10.87 10.8731 10.87H10.3899C10.095 10.87 9.99673 10.9598 9.99673 11.2536V11.7351C9.99673 12.0207 10.095 12.1105 10.3899 12.1105Z" fill="#007AFF"/>
</svg>
