<svg width="18" height="22" viewBox="0 0 18 22" fill="none" xmlns="http://www.w3.org/2000/svg">
<path d="M13.6779 1H4.53502C2.6423 1.00186 1.10854 2.36873 1.10645 4.05549V20.8607C1.10658 20.9494 1.13274 21.0366 1.18227 21.1136C1.33956 21.358 1.68938 21.4424 1.96359 21.3023L9.10645 17.6361L16.2493 21.3023C16.3364 21.3464 16.4348 21.3697 16.535 21.37C16.8504 21.3695 17.1059 21.1418 17.1064 20.8607V4.05549C17.1044 2.36873 15.5706 1.00186 13.6779 1ZM15.9636 19.9795L9.39216 16.6067C9.30504 16.5626 9.20661 16.5393 9.10645 16.5391C9.00628 16.5393 8.90785 16.5626 8.82073 16.6067L2.2493 19.9795V4.05549C2.25091 2.93107 3.2733 2.01993 4.53502 2.0185H13.6779C14.9396 2.01993 15.962 2.93107 15.9636 4.05549V19.9795Z" fill="url(#paint0_linear_52_1674)" stroke="url(#paint1_linear_52_1674)"/>
<defs>
<linearGradient id="paint0_linear_52_1674" x1="17.1064" y1="1" x2="-2.68376" y2="16.5446" gradientUnits="userSpaceOnUse">
<stop stop-color="#00FCCF"/>
<stop offset="1" stop-color="#BD01FF"/>
</linearGradient>
<linearGradient id="paint1_linear_52_1674" x1="17.1064" y1="1" x2="-2.68376" y2="16.5446" gradientUnits="userSpaceOnUse">
<stop stop-color="#00FCCF"/>
<stop offset="1" stop-color="#BD01FF"/>
</linearGradient>
</defs>
</svg>
